<svg width="32" height="32" viewBox="0 0 32 32" fill="none" xmlns="http://www.w3.org/2000/svg">
<path d="M16 0C7.16 0 0 7.16 0 16C0 24.84 7.16 32 16 32C24.84 32 32 24.84 32 16C32 7.16 24.84 0 16 0ZM25 8.32L23.56 9.77C23.44 9.87 23.37 10.03 23.4 10.19V20.82C23.37 20.98 23.44 21.14 23.56 21.24L24.96 22.69V23H17.9V22.68L19.35 21.2C19.49 21.05 19.49 21.01 19.49 20.78V12.19L15.45 22.97H14.9L10.19 12.19V19.41C10.15 19.71 10.25 20.02 10.45 20.24L12.34 22.65V22.97H7V22.65L8.89 20.24C9.09 20.02 9.18 19.71 9.13 19.41V11.06C9.15 10.83 9.07 10.6 8.9 10.44L7.23 8.32V8H12.45L16.48 17.29L20.03 8H25V8.32Z" fill="currentColor"/>
</svg>
