<svg width="16" height="16" viewBox="0 0 18 18" fill="none" xmlns="http://www.w3.org/2000/svg">
<path d="M5.26897 2.3711C3.68935 3.28937 2.51014 4.72555 1.91503 6.4666C1.26114 8.38396 1.38971 10.4409 2.28238 12.2591C3.56812 14.878 6.18001 16.5052 9.10048 16.5052C13.0459 16.5052 15.2206 13.7136 15.9443 12.1819C14.6402 12.7402 13.2516 13.0304 11.8887 13.0304C8.78823 13.0304 6.12123 11.5171 4.92366 9.08185C3.90241 6.99553 4.06405 4.54557 5.26897 2.3711ZM9.10048 18.0001C5.60326 18.0001 2.47341 16.0534 0.934192 12.9166C-0.134809 10.7384 -0.292772 8.27377 0.493366 5.97808C1.2795 3.6824 2.91056 1.83116 5.09264 0.762284C5.78694 0.420686 6.52532 0.170916 7.2784 0.0166456C7.60167 -0.0531432 7.93229 0.1048 8.09025 0.394974C8.24821 0.685149 8.19311 1.04511 7.958 1.28019C5.84204 3.39222 5.18081 6.19479 6.27552 8.42069C7.21595 10.338 9.36865 11.5281 11.8924 11.5281C14.4234 11.5281 16.5063 10.2205 16.8406 10.0001C17.0941 9.83116 17.4247 9.83483 17.6745 10.0075C17.9243 10.1801 18.0419 10.4813 17.9868 10.7825C17.4468 13.7467 14.552 18.0001 9.10048 18.0001Z" fill="white"/>
</svg>
