<svg width="16" height="16" viewBox="0 0 15 16" fill="none" xmlns="http://www.w3.org/2000/svg">
<path d="M13.4395 8L14.8992 6.00332C14.9989 5.86688 15.0275 5.6895 14.9759 5.52786C14.9243 5.36622 14.7989 5.23992 14.6394 5.18919L12.3055 4.44713L12.3334 1.95854C12.3354 1.78851 12.256 1.62792 12.1209 1.52786C11.9859 1.4278 11.8113 1.40086 11.6531 1.45509L9.33646 2.25103L7.9217 0.221114C7.82477 0.082568 7.66804 0 7.50099 0C7.33394 0 7.1772 0.082568 7.08027 0.221114L5.66586 2.25103L3.34918 1.45509C3.19072 1.40051 3.01645 1.4278 2.88137 1.52786C2.74629 1.62792 2.66689 1.78816 2.66895 1.95854L2.69679 4.44713L0.362924 5.18919C0.203438 5.23992 0.0779793 5.36622 0.0264211 5.52786C-0.0251371 5.6895 0.00339174 5.86688 0.103071 6.00332L1.56286 8L0.103071 9.99668C0.00339174 10.1331 -0.0251371 10.3105 0.0264211 10.4721C0.0779793 10.6338 0.203438 10.7601 0.362924 10.8108L2.69679 11.5529L2.66895 14.0415C2.66689 14.2115 2.74629 14.3721 2.88137 14.4721C3.01645 14.5722 3.19106 14.5991 3.34918 14.5449L5.66586 13.749L7.08062 15.7789C7.1772 15.9178 7.33394 16 7.50133 16C7.66872 16 7.82512 15.9174 7.92205 15.7789L9.33646 13.749L11.6531 14.5449C11.8116 14.5991 11.9859 14.5722 12.1209 14.4721C12.256 14.3721 12.3354 14.2115 12.3334 14.0415L12.3055 11.5529L14.6394 10.8108C14.7989 10.7601 14.9243 10.6338 14.9759 10.4721C15.0275 10.3105 14.9989 10.1331 14.8992 9.99668L13.4395 8ZM11.6318 10.6674C11.4146 10.7366 11.2675 10.9424 11.2699 11.1743L11.294 13.3137L9.30243 12.6294C9.08657 12.5552 8.84872 12.634 8.71707 12.8229L7.50099 14.568L6.2849 12.8229C6.18625 12.6812 6.02814 12.6018 5.86419 12.6018C5.80919 12.6018 5.75351 12.6109 5.69954 12.6294L3.70802 13.3137L3.73208 11.1743C3.73483 10.9427 3.58772 10.7366 3.37014 10.6674L1.36384 10.0296L2.61842 8.31313C2.75454 8.127 2.75454 7.87265 2.61842 7.68652L1.3635 5.97009L3.3698 5.33228C3.58703 5.26301 3.73414 5.05694 3.73174 4.82533L3.70768 2.68591L5.6992 3.37024C5.91506 3.44442 6.15291 3.3657 6.28456 3.17677L7.50064 1.43165L8.71673 3.17677C8.84837 3.3657 9.08657 3.44442 9.30209 3.37024L11.2936 2.68591L11.2695 4.82533C11.2668 5.05694 11.4139 5.26301 11.6315 5.33228L13.6378 5.97009L12.3829 7.68652C12.2471 7.87265 12.2471 8.127 12.3829 8.31313L13.6374 10.0296L11.6318 10.6674Z" fill="#0B3E1C"/>
<path d="M7.50007 3.59344C5.11292 3.59344 3.1709 5.57018 3.1709 7.99999C3.1709 10.4298 5.11292 12.4065 7.50007 12.4065C9.88721 12.4065 11.8292 10.4298 11.8292 7.99999C11.8292 5.57018 9.88721 3.59344 7.50007 3.59344ZM7.50007 11.3569C5.68144 11.3569 4.20206 9.85112 4.20206 7.99999C4.20206 6.1492 5.68144 4.64304 7.50007 4.64304C9.3187 4.64304 10.7981 6.14885 10.7981 7.99999C10.7981 9.85112 9.3187 11.3569 7.50007 11.3569Z" fill="#0B3E1C"/>
</svg>
