<svg width="32" height="32" viewBox="0 0 32 32" fill="none" xmlns="http://www.w3.org/2000/svg">
<path d="M16 0C7.1622 0 0 7.1622 0 16C0 24.8378 7.1622 32 16 32C24.8378 32 32 24.8378 32 16C32 7.1622 24.8378 0 16 0ZM22.8626 13.4047C22.8696 13.5511 22.8731 13.6974 22.8731 13.8472C22.8731 18.3514 19.4418 23.5489 13.1713 23.5489C11.2449 23.5489 9.45439 22.9845 7.94252 22.0161C8.21076 22.0475 8.48247 22.0649 8.75419 22.0649C10.3531 22.0649 11.8232 21.518 12.9902 20.6053C11.4992 20.5774 10.2382 19.5916 9.80623 18.2364C10.0152 18.2748 10.2277 18.2992 10.4472 18.2992C10.7572 18.2992 11.0603 18.2573 11.346 18.1807C9.78533 17.8672 8.61136 16.4877 8.61136 14.8365C8.61136 14.8226 8.61136 14.8086 8.61136 14.7912C9.07119 15.0455 9.59721 15.2023 10.1546 15.2162C9.23841 14.6066 8.63575 13.5615 8.63575 12.3771C8.63575 11.7535 8.80645 11.1683 9.09906 10.6632C10.7816 12.7255 13.2933 14.084 16.1289 14.2269C16.0697 13.9761 16.0418 13.7183 16.0418 13.45C16.0418 11.5689 17.5676 10.0396 19.4522 10.0396C20.4346 10.0396 21.3194 10.4542 21.943 11.116C22.7198 10.9628 23.4479 10.6806 24.1062 10.287C23.8519 11.0812 23.312 11.7501 22.6083 12.1716C23.2981 12.088 23.9565 11.9068 24.5661 11.6351C24.1097 12.3214 23.528 12.924 22.8626 13.4047Z" fill="currentColor"/>
</svg>
