<svg width="97" height="77" viewBox="0 0 97 77" fill="none" xmlns="http://www.w3.org/2000/svg">
<g filter="url(#filter0_dd)">
<path d="M73.8032 52.0428H22.6409C18.9731 52.0428 16 49.1017 16 45.4733V14.5695C16 10.9411 18.9731 8 22.6409 8H73.8032C77.471 8 80.4441 10.9411 80.4441 14.5695V45.4733C80.4441 49.1017 77.471 52.0428 73.8032 52.0428Z" fill="url(#paint0_linear)"/>
<g clip-path="url(#clip0)">
<path d="M28.7752 41.9992C28.3474 42 28 41.6553 28 41.2298V35.6697C28 34.9526 28.0143 28.2943 28.0143 27.5649V20.2173H34.8379C35.4004 20.2173 35.7301 19.5816 35.3976 19.1307C33.8005 16.9651 35.194 13.8829 36.3865 13.3612C37.7999 12.7429 40.6828 12.5745 41.5306 15.7215C41.9722 17.361 41.5668 18.5579 41.0771 19.3288C40.7853 19.7878 41.1118 20.386 41.6579 20.386H48.1441V27.9444C48.1441 28.6848 47.3079 29.1204 46.6964 28.6981C45.8204 28.0932 44.7575 27.4181 44.1456 27.242C42.9736 26.9049 40.5696 27.5791 40.1949 30.3891C39.8202 33.199 41.7001 35.2219 44.1695 35.1096C45.2769 35.0592 46.1904 34.7893 46.8612 34.507C47.4701 34.2506 48.1443 34.7013 48.1443 35.3588V41.9659L28.7752 41.9992Z" fill="white"/>
<path d="M68.2746 41.4665H48.6443V35.3595C48.6443 34.3456 47.6071 33.6512 46.6673 34.0468L46.6672 34.0468C46.0408 34.3106 45.1854 34.5635 44.1468 34.6108C43.0596 34.6602 42.1215 34.2417 41.4932 33.518C40.8648 32.7941 40.5202 31.7333 40.6905 30.4558L40.1949 30.3897L40.6905 30.4558C40.858 29.2003 41.466 28.4631 42.129 28.0645C42.8164 27.6511 43.5678 27.5967 44.0074 27.7232L44.0074 27.7232C44.2476 27.7923 44.6194 27.976 45.068 28.2406C45.5054 28.4985 45.9793 28.8112 46.4124 29.1102L46.4124 29.1103C47.3521 29.759 48.6441 29.0929 48.6441 27.9451V20.8868H55.1894C55.3316 20.8868 55.4222 21.0295 55.3665 21.1555L55.3665 21.1555C55.0409 21.893 54.6432 22.9798 54.5953 24.0122C54.5712 24.5324 54.634 25.0725 54.8693 25.5542C55.1106 26.0483 55.5179 26.4479 56.1162 26.6938C57.5827 27.2964 59.1634 27.3632 60.4292 26.9922C61.6826 26.6248 62.7415 25.7799 62.8859 24.4885L62.8859 24.4884C63.0288 23.2089 62.4438 21.9805 61.9404 21.1781C61.8596 21.0493 61.9502 20.8868 62.1014 20.8868H68.3919L68.4999 41.2443C68.5005 41.364 68.4022 41.4665 68.2746 41.4665Z" stroke="white"/>
</g>
</g>
<defs>
<filter id="filter0_dd" x="0" y="0" width="96.4441" height="76.0428" filterUnits="userSpaceOnUse" color-interpolation-filters="sRGB">
<feFlood flood-opacity="0" result="BackgroundImageFix"/>
<feColorMatrix in="SourceAlpha" type="matrix" values="0 0 0 0 0 0 0 0 0 0 0 0 0 0 0 0 0 0 127 0"/>
<feOffset dy="8"/>
<feGaussianBlur stdDeviation="8"/>
<feColorMatrix type="matrix" values="0 0 0 0 0 0 0 0 0 0 0 0 0 0 0 0 0 0 0.32 0"/>
<feBlend mode="normal" in2="BackgroundImageFix" result="effect1_dropShadow"/>
<feColorMatrix in="SourceAlpha" type="matrix" values="0 0 0 0 0 0 0 0 0 0 0 0 0 0 0 0 0 0 127 0"/>
<feOffset dy="2"/>
<feGaussianBlur stdDeviation="2"/>
<feColorMatrix type="matrix" values="0 0 0 0 0 0 0 0 0 0 0 0 0 0 0 0 0 0 0.04 0"/>
<feBlend mode="normal" in2="effect1_dropShadow" result="effect2_dropShadow"/>
<feBlend mode="normal" in="SourceGraphic" in2="effect2_dropShadow" result="shape"/>
</filter>
<linearGradient id="paint0_linear" x1="-4.81601" y1="22.2262" x2="18.2484" y2="74.4667" gradientUnits="userSpaceOnUse">
<stop stop-color="#00DE81"/>
<stop offset="1" stop-color="#05A660"/>
</linearGradient>
<clipPath id="clip0">
<rect width="41" height="29" fill="white" transform="translate(28 13)"/>
</clipPath>
</defs>
</svg>
