<svg width="97" height="77" viewBox="0 0 97 77" fill="none" xmlns="http://www.w3.org/2000/svg">
<g filter="url(#filter0_dd)">
<path d="M73.8032 52.0428H22.6409C18.9731 52.0428 16 49.1017 16 45.4733V14.5695C16 10.9411 18.9731 8 22.6409 8H73.8032C77.471 8 80.4441 10.9411 80.4441 14.5695V45.4733C80.4441 49.1017 77.471 52.0428 73.8032 52.0428Z" fill="url(#paint0_linear)"/>
<path d="M44.6953 14.7285L44.6954 14.7285C46.2435 15.0547 47.35 16.4862 47.35 18.1093V40.8844C47.35 41.6627 47.0436 42.4287 46.57 43.0345C46.0969 43.6398 45.4358 44.1116 44.6965 44.2698L44.6947 44.2702C44.4407 44.3231 44.19 44.35 43.9379 44.35C42.7648 44.35 41.6799 43.7686 41.0473 42.7556L41.0468 42.7548C40.8106 42.3742 40.3658 42.1272 39.8425 42.1232L39.8383 42.1232C39.569 42.1179 39.2981 42.0862 39.0263 42.0223M44.6953 14.7285L39.1075 17.2655M44.6953 14.7285C42.9946 14.3708 41.3188 15.263 40.7389 16.8746C40.7281 16.9039 40.7109 16.9212 40.6928 16.9311C40.6745 16.9411 40.6459 16.9486 40.6055 16.9404L40.6042 16.9401C40.0947 16.8382 39.5729 16.8498 39.0568 16.9604L39.0568 16.9604L39.0531 16.9612C37.866 17.2292 36.8778 18.1061 36.4727 19.2535M44.6953 14.7285L36.4727 19.2535M39.0263 42.0223C37.8652 41.7539 36.8884 40.8876 36.4833 39.7615L36.4831 39.761C36.2407 39.0837 36.2045 38.3861 36.3833 37.7104C34.6049 37.4039 33.2427 35.8771 33.2427 34.035C33.2427 33.8021 33.2642 33.5605 33.3142 33.326C33.3822 32.9898 33.2471 32.5781 32.8748 32.2418L32.8747 32.2417C32.097 31.5384 31.65 30.5364 31.65 29.4993C31.65 28.062 32.5018 26.7727 33.7851 26.1542C33.4323 25.5809 33.2427 24.927 33.2427 24.2535C33.2427 22.4999 34.4664 21.009 36.205 20.627L36.2702 20.924C36.4525 20.8794 36.5765 20.7177 36.5712 20.5244L36.6204 20.523C36.6204 20.5219 36.6203 20.5208 36.6203 20.5197M39.0263 42.0223C39.026 42.0223 39.0257 42.0222 39.0254 42.0221L39.0947 41.7275L41.3105 42.5913C41.3104 42.5912 41.3104 42.5912 41.3104 42.5912C41.0132 42.1239 40.4742 41.8271 39.8455 41.8189L39.8448 41.8189L39.8443 41.8188L39.8425 41.8188C39.6006 41.8135 39.3491 41.7871 39.0949 41.7276L39.0267 42.0224C39.0266 42.0224 39.0264 42.0224 39.0263 42.0223ZM36.6203 20.5197C36.6105 20.1356 36.6689 19.7516 36.8003 19.3771C36.8004 19.3767 36.8005 19.3763 36.8007 19.376C36.8014 19.374 36.8021 19.372 36.8028 19.37M36.6203 20.5197L36.5711 20.5208M36.6203 20.5197L36.5711 20.5208M36.8028 19.37C37.1661 18.3407 38.0526 17.5509 39.1166 17.3058L39.1075 17.2655M36.8028 19.37L36.756 19.3535M36.8028 19.37L36.756 19.3535M39.1075 17.2655C38.0246 17.5091 37.1274 18.312 36.756 19.3535M39.1075 17.2655L36.6204 20.5234M36.6204 20.5234L36.5712 20.5248C36.5712 20.5235 36.5712 20.5222 36.5711 20.5209L36.2704 20.5286C36.2704 20.5284 36.2704 20.5282 36.2704 20.528C36.2704 20.5278 36.2704 20.5277 36.2704 20.5276L36.5711 20.5208M36.6204 20.5234C36.6237 20.7391 36.486 20.9209 36.2801 20.9689L36.6204 20.5234ZM36.5711 20.5208C36.5606 20.1313 36.6216 19.7376 36.7535 19.3607L36.7539 19.3594C36.7546 19.3574 36.7553 19.3555 36.756 19.3535M36.756 19.3535L36.4727 19.2535M36.756 19.3535C36.756 19.3535 36.756 19.3535 36.756 19.3535M36.756 19.3535L36.4728 19.2534C36.4727 19.2535 36.4727 19.2535 36.4727 19.2535M37.0838 19.4763C36.9658 19.8135 36.9115 20.1651 36.921 20.512C36.921 20.5123 36.921 20.5126 36.921 20.5128C36.9211 20.5135 36.9211 20.5142 36.9211 20.5148L36.3552 21.3107L36.3552 21.3108L36.3596 21.3097C36.7345 21.2223 36.978 20.8883 36.9703 20.5135C36.9703 20.5135 36.9703 20.5135 36.9703 20.5134C36.9703 20.5129 36.9702 20.5123 36.9702 20.5117L36.9702 20.5107C36.9615 20.1686 37.0134 19.8269 37.1306 19.4929L37.0838 19.4763ZM37.0838 19.4763L37.1306 19.4927C37.1313 19.4907 37.1321 19.4887 37.1328 19.4867L37.1328 19.4865C37.456 18.571 38.2467 17.866 39.1935 17.6472C39.1935 17.6472 39.1935 17.6472 39.1935 17.6472C39.1974 17.6463 39.2014 17.6454 39.2054 17.6445C39.2048 17.6446 39.2041 17.6448 39.2035 17.6449L39.1949 17.6046C39.1914 17.6054 39.1879 17.6062 39.1844 17.607C38.2201 17.8238 37.4178 18.5408 37.0861 19.47C37.086 19.4701 37.086 19.4701 37.086 19.4701C37.0853 19.4722 37.0846 19.4743 37.0838 19.4763ZM39.1302 17.3027C39.1257 17.3037 39.1212 17.3047 39.1167 17.3057L40.5184 17.28C40.5179 17.2799 40.5174 17.2798 40.5169 17.2797C40.0642 17.1918 39.5972 17.2026 39.1302 17.3027ZM46.3246 40.8844V41.125C46.2706 41.5707 46.0715 42.0253 45.7732 42.4092C45.4203 42.8634 44.9546 43.1858 44.487 43.2856C43.45 43.5031 42.4423 43.0849 41.9076 42.2259L41.9067 42.2244C41.4735 41.5363 40.7036 41.1305 39.8562 41.1189C39.655 41.1145 39.4533 41.0926 39.2545 41.046C38.4229 40.8509 37.723 40.2291 37.4329 39.423L37.4326 39.4224C37.1947 38.7656 37.2318 38.1209 37.5401 37.4854C37.6263 37.3137 37.5984 37.1322 37.5154 36.9967L37.511 36.9896L37.5063 36.9826C37.4179 36.8526 37.2647 36.7571 37.0838 36.7571L37.0816 36.7571C37.0682 36.7571 37.0409 36.757 37.0054 36.7618C35.4746 36.7464 34.2435 35.521 34.2435 34.035C34.2435 33.8661 34.2607 33.6966 34.2954 33.5262C34.4487 32.7919 34.1418 32.0347 33.5466 31.4956L33.5464 31.4955C32.9777 30.9812 32.6508 30.2491 32.6508 29.4945C32.6508 28.2901 33.479 27.2146 34.6827 26.8835H34.6854L34.6971 26.8795C34.6979 26.8793 34.6988 26.8791 34.6996 26.8788C34.7175 26.8746 34.739 26.8681 34.7625 26.8577C35.2862 26.6891 35.9145 26.7309 36.4786 26.9432C37.0528 27.1592 37.5102 27.532 37.7195 27.9641C37.809 28.1533 38.0009 28.2504 38.1785 28.2504C38.245 28.2504 38.3233 28.2362 38.3966 28.2003C38.6276 28.0871 38.766 27.7998 38.6305 27.5284C38.2967 26.8373 37.6423 26.3195 36.908 26.0277C36.2437 25.7637 35.4821 25.6714 34.7719 25.8207C34.4269 25.3526 34.2386 24.8063 34.2386 24.2535C34.2386 22.9843 35.1243 21.895 36.4096 21.6102C36.9313 21.4962 37.2853 21.0326 37.271 20.5053L37.271 20.5049C37.2623 20.2003 37.3098 19.8904 37.414 19.5926C37.7047 18.7728 38.4135 18.1391 39.2612 17.9484L39.2613 17.9484C39.6428 17.8625 40.0175 17.8584 40.3886 17.931C40.9379 18.0409 41.4828 17.7437 41.6771 17.2219L41.6782 17.2189C42.085 16.0947 43.2506 15.4532 44.4716 15.7129L44.4719 15.7129C45.5308 15.937 46.3246 16.9385 46.3246 18.1142V40.8844ZM36.2696 20.9241C36.2664 20.9249 36.2631 20.9257 36.2599 20.9264L36.2587 20.9266C34.6645 21.2796 33.5386 22.644 33.5386 24.2535C33.5386 24.8849 33.7288 25.4974 34.0683 26.0315L36.2696 20.9241ZM36.7744 39.6607C36.7744 39.6607 36.7745 39.6607 36.7745 39.6608L36.8139 39.6465C37.1795 40.6592 38.0613 41.4401 39.1054 41.6814L36.7744 39.6607Z" fill="white" stroke="white" stroke-width="0.7"/>
<path d="M51.3047 44.2715L51.3046 44.2714C49.7565 43.9453 48.65 42.5138 48.65 40.8907L48.65 18.1156C48.65 17.3373 48.9564 16.5713 49.43 15.9655C49.9031 15.3602 50.5642 14.8884 51.3035 14.7302L51.3053 14.7298C51.5593 14.6769 51.81 14.65 52.0621 14.65C53.2352 14.65 54.3201 15.2314 54.9527 16.2444L54.9532 16.2452C55.1894 16.6258 55.6342 16.8728 56.1575 16.8768L56.1617 16.8768C56.431 16.8821 56.7019 16.9138 56.9738 16.9777C56.974 16.9777 56.9743 16.9778 56.9746 16.9779L56.8945 17.3186C57.9398 17.5601 58.8225 18.3426 59.1874 19.357L51.3047 44.2715ZM51.3047 44.2715C53.0054 44.6292 54.6812 43.737 55.2611 42.1254C55.2719 42.0961 55.2891 42.0788 55.3072 42.0689C55.3255 42.0589 55.3541 42.0514 55.3945 42.0596L55.3958 42.0599C55.9053 42.1618 56.4271 42.1502 56.9432 42.0396L56.9432 42.0396L56.9469 42.0388C58.134 41.7708 59.1222 40.8939 59.5273 39.7465C59.6747 39.3292 59.7404 38.9004 59.7296 38.472C59.7289 38.4407 59.7383 38.4181 59.7495 38.4034C59.7605 38.3889 59.7764 38.3773 59.7994 38.372L59.7199 38.0311M51.3047 44.2715L59.6167 21.2896C61.3951 21.5961 62.7573 23.1229 62.7573 24.965C62.7573 25.1979 62.7358 25.4395 62.6858 25.674C62.6178 26.0102 62.7529 26.4219 63.1252 26.7582L63.1253 26.7583C63.903 27.4616 64.35 28.4636 64.35 29.5007C64.35 30.938 63.4982 32.2273 62.2149 32.8458C62.5677 33.4191 62.7573 34.073 62.7573 34.7465C62.7573 36.5001 61.5336 37.991 59.795 38.373L59.7199 38.0311M59.7199 38.0311C59.5128 38.0794 59.3748 38.263 59.3797 38.4803L61.8889 32.9848C62.2267 33.515 62.4073 34.1223 62.4073 34.7465C62.4073 36.3308 61.3028 37.6833 59.7199 38.0311Z" fill="white" stroke="white" stroke-width="0.7"/>
<path d="M58.9999 30.5C58.5 31.5 60.5 35 63.4999 33" stroke="#27AE60" stroke-linecap="round"/>
</g>
<defs>
<filter id="filter0_dd" x="0" y="0" width="96.4441" height="76.0428" filterUnits="userSpaceOnUse" color-interpolation-filters="sRGB">
<feFlood flood-opacity="0" result="BackgroundImageFix"/>
<feColorMatrix in="SourceAlpha" type="matrix" values="0 0 0 0 0 0 0 0 0 0 0 0 0 0 0 0 0 0 127 0"/>
<feOffset dy="8"/>
<feGaussianBlur stdDeviation="8"/>
<feColorMatrix type="matrix" values="0 0 0 0 0 0 0 0 0 0 0 0 0 0 0 0 0 0 0.32 0"/>
<feBlend mode="normal" in2="BackgroundImageFix" result="effect1_dropShadow"/>
<feColorMatrix in="SourceAlpha" type="matrix" values="0 0 0 0 0 0 0 0 0 0 0 0 0 0 0 0 0 0 127 0"/>
<feOffset dy="2"/>
<feGaussianBlur stdDeviation="2"/>
<feColorMatrix type="matrix" values="0 0 0 0 0 0 0 0 0 0 0 0 0 0 0 0 0 0 0.04 0"/>
<feBlend mode="normal" in2="effect1_dropShadow" result="effect2_dropShadow"/>
<feBlend mode="normal" in="SourceGraphic" in2="effect2_dropShadow" result="shape"/>
</filter>
<linearGradient id="paint0_linear" x1="-4.81601" y1="22.2262" x2="18.2484" y2="74.4667" gradientUnits="userSpaceOnUse">
<stop stop-color="#00DE81"/>
<stop offset="1" stop-color="#05A660"/>
</linearGradient>
</defs>
</svg>
