<svg width="32" height="32" viewBox="0 0 32 32" fill="none" xmlns="http://www.w3.org/2000/svg">
<path d="M15.9983 0C7.16314 0 0 7.16314 0 15.9983C0 24.8369 7.16314 32 15.9983 32C24.8334 32 31.9965 24.8369 31.9965 16.0017C32 7.16314 24.8369 0 15.9983 0ZM11.9987 23.5707H8.60618V12.6647H11.9987V23.5707ZM10.3024 11.1766C9.21323 11.1766 8.33561 10.2955 8.33561 9.20976C8.33561 8.12748 9.21323 7.2464 10.3024 7.2464C11.3882 7.2464 12.2658 8.12748 12.2658 9.20976C12.2658 10.2955 11.3882 11.1766 10.3024 11.1766ZM24.6877 23.5707H21.3021V18.2669C21.3021 17.0008 21.2778 15.3739 19.5399 15.3739C17.7778 15.3739 17.5072 16.751 17.5072 18.1732V23.5673H14.1216V12.6647H17.3719V14.1528H17.417C17.868 13.296 18.9745 12.3907 20.6222 12.3907C24.0494 12.3907 24.6842 14.6489 24.6842 17.5835V23.5707H24.6877Z" fill="#27AE60"/>
</svg>
