<svg width="158" height="199" viewBox="0 0 158 199" fill="none" xmlns="http://www.w3.org/2000/svg">
<path d="M103.027 13.0374L107.986 0.519895L102.321 0L99.9347 4.05252L99.8947 4.02586L97.402 8.35832L95.5891 11.4644C94.9893 11.3444 94.4027 11.5443 94.0961 11.9709C94.0295 12.0376 93.9762 12.1176 93.9362 12.2109L92.6165 14.917C92.4699 15.1969 92.4699 15.5302 92.5899 15.8368C92.6965 16.1034 92.8965 16.3434 93.1631 16.5167C92.3766 18.8096 89.6306 26.8613 88.5909 31.1271L85.0851 37.7124L65.6767 37.5924V37.6191C60.7179 43.4179 46.4549 61.2677 44.1621 67.6797L42.4292 72.3588C42.4026 72.4254 42.3892 72.4921 42.3892 72.5587C42.3626 72.9453 41.8694 82.2768 51.387 91.4616C51.4003 91.4749 51.4136 91.4883 51.427 91.5016C56.679 95.7941 66.3032 103.539 66.3965 103.619C66.5431 103.726 66.7031 103.792 66.8764 103.792C67.0497 103.792 67.2096 103.739 67.3429 103.632C69.6223 101.886 73.0748 97.4604 69.849 93.2613C69.2091 92.4348 68.3427 91.5683 67.3296 90.5685C62.3309 85.6228 55.4926 78.8641 67.2496 67.2132C67.2763 67.1865 67.2896 67.1732 67.3163 67.1465C69.489 64.3871 76.7139 58.6415 83.0723 54.629L83.4988 54.3624C86.7913 52.2828 94.496 47.4305 97.0021 44.2578C97.0421 44.2178 97.0687 44.1645 97.0954 44.1111L99.3082 39.3921C99.3881 39.2188 99.4015 39.0055 99.3215 38.8322L96.3356 31.607C97.202 27.4478 97.8952 24.4084 99.2682 20.9425L100.588 18.103C101.188 18.2097 101.761 18.0097 102.067 17.5965C102.134 17.5298 102.187 17.4498 102.227 17.3565L103.547 14.6504C103.694 14.3571 103.694 14.0372 103.574 13.7306C103.467 13.4373 103.28 13.2107 103.027 13.0374ZM95.7357 43.4179C93.3363 46.3907 85.8582 51.0964 82.659 53.1227L82.2325 53.3893C75.7808 57.4684 68.4226 63.3206 66.1299 66.2134C53.3998 78.8508 61.4377 86.7959 66.2365 91.5416C67.2096 92.5014 68.0494 93.3412 68.6359 94.0878C71.2753 97.5404 68.1161 100.94 66.863 102.086C64.8236 100.446 56.9855 94.1277 52.4267 90.3952C43.9222 82.1835 43.8689 73.6919 43.8822 72.7187L45.5751 68.1463C47.5613 62.5608 60.0514 46.524 66.3965 39.0322L85.9915 39.1521L89.9639 31.7003L90.0305 31.527C90.0305 31.5003 90.0438 31.4737 90.0438 31.447L90.0838 31.4603C91.2435 26.648 94.816 16.3967 94.856 16.2901L95.0826 15.6502L94.1228 15.2636L95.2559 12.9574C95.2692 12.9574 95.2692 12.9574 95.2825 12.9707L96.2156 13.344L96.2556 13.264H96.2689L103.161 1.53303L105.84 1.77298L101.054 13.8639L102.027 14.2505L100.894 16.5567C100.881 16.5567 100.868 16.5567 100.868 16.5433L99.828 16.1301L99.788 16.2101L99.7614 16.1967L97.8019 20.4092C96.3489 24.1018 95.6424 27.2479 94.7227 31.607V31.6203V31.6336H94.736L97.7886 39.0188L95.7357 43.4179Z" fill="#10CB5B"/>
<path d="M118.477 89.182C118.463 88.8887 118.277 88.6221 117.984 88.5154C117.69 88.4088 117.357 88.4888 117.157 88.7154L105.253 101.726C105.213 101.619 105.173 101.499 105.147 101.366C104.987 100.473 105.28 98.3134 109.039 94.0076C115.931 86.3825 117.437 84.5162 117.597 83.8097H117.61C117.677 82.7166 118.104 73.0919 113.251 72.7053C112.985 72.6786 112.705 72.8252 112.558 73.0385C111.972 73.865 100.948 84.7828 93.4298 92.1814C93.0565 91.9281 92.6033 91.5281 92.5233 91.0216C92.3767 90.2084 93.1498 89.3286 93.843 88.702C103.387 79.4506 112.598 68.9727 112.692 68.866C112.772 68.7861 112.825 68.6794 112.852 68.5728C112.865 68.4928 114.731 60.721 106.733 58.7081C106.506 58.6548 106.267 58.6947 106.08 58.8414C102.801 61.2809 86.1116 75.2248 83.6722 77.251C83.0857 77.131 82.2593 76.8378 82.0993 76.3712C82.0193 76.1312 82.006 75.4114 83.6589 73.945L95.1093 65.1601C95.1893 65.0935 102.867 59.0413 105.24 57.3084C106.813 56.1486 105.84 53.0825 104.134 50.803C101.934 47.8569 99.2416 46.8571 97.1222 48.2169C96.8956 48.3635 72.2085 65.4801 66.25 73.5318C63.544 77.6909 63.504 80.1971 66.0634 85.2227C66.09 85.2761 66.13 85.3294 66.17 85.3694L72.1152 92.1147C72.1685 92.1813 76.8606 98.2868 72.795 102.366C70.6889 104.739 68.3828 106.805 67.423 107.645C65.0103 105.872 54.493 98.1135 50.9205 95.1274C44.3755 89.6752 42.0161 80.9569 42.0028 80.877C41.9228 80.557 41.6295 80.3304 41.283 80.3304C40.9497 80.3171 40.6431 80.5437 40.5498 80.8503C40.4165 81.3035 37.4439 91.4748 42.3894 103.379C41.4429 104.099 41.0963 105.365 41.6162 106.458C42.0694 107.405 43.0425 107.965 44.0689 107.965C44.4422 107.965 44.8154 107.885 45.1753 107.738C46.5216 107.152 47.1215 105.619 46.5083 104.326C46.0151 103.299 44.9087 102.726 43.8023 102.833C40.5232 94.9141 40.9097 87.6756 41.4563 83.9297C42.6959 87.089 45.2953 92.3546 49.9341 96.2205C53.9997 99.6065 66.8765 109.071 67.0098 109.165C67.2897 109.378 67.6896 109.365 67.9695 109.138C68.1028 109.031 71.1421 106.485 73.928 103.339C78.8335 98.4068 73.3948 91.3149 73.3149 91.2215L67.4097 84.5029C65.1169 79.9971 65.1569 77.9842 67.5297 74.3316C72.9949 66.9464 96.4957 50.3631 97.9753 49.4166C100.095 48.0702 102.467 51.0296 102.921 51.6428C104.467 53.7224 104.84 55.7887 104.334 56.1619C101.948 57.9216 94.2429 63.987 94.1763 64.0403L82.7125 72.8252C82.6992 72.8386 82.6858 72.8519 82.6725 72.8652C80.9529 74.3983 80.2998 75.6913 80.6863 76.8244C81.2329 78.4108 83.5789 78.7041 83.8455 78.7441C84.0588 78.7707 84.2721 78.7041 84.432 78.5708C84.6187 78.4108 102.641 63.3605 106.733 60.2144C112.398 61.8674 111.652 67.0797 111.452 68.0795C110.332 69.3459 101.721 79.064 92.8299 87.6756C91.4569 88.9153 90.8571 90.1284 91.0704 91.2882C91.377 92.9545 93.2298 93.741 93.2965 93.7677C93.5897 93.8877 93.923 93.821 94.1363 93.6077C97.0955 90.7016 111.092 76.9311 113.531 74.2383C116.011 74.9848 116.277 81.1702 116.157 83.5964C115.904 83.9697 114.598 85.716 107.933 93.0878C104.694 96.7938 103.281 99.7132 103.72 101.753C104 103.006 104.867 103.446 104.974 103.499C105.28 103.646 105.653 103.579 105.88 103.326L117.037 91.1282C116.731 116.63 96.5356 123.882 84.3254 125.921L84.0988 125.961C73.3415 126.988 64.8103 124.908 57.4922 119.443C57.8388 118.776 57.8921 117.963 57.5455 117.23C56.9323 115.937 55.3327 115.363 53.9864 115.95C52.6401 116.536 52.0402 118.069 52.6534 119.363C52.9467 119.989 53.4799 120.469 54.1597 120.709C54.4663 120.816 54.7862 120.869 55.1061 120.869C55.4794 120.869 55.8659 120.789 56.2125 120.642C56.3058 120.602 56.3858 120.562 56.4658 120.522C62.8642 125.308 70.3289 127.681 79.1134 127.681C80.793 127.681 82.5125 127.601 84.2987 127.428C84.3121 127.428 84.3387 127.428 84.3521 127.414L84.6053 127.374C87.4313 126.894 96.0158 125.455 103.907 120.082C113.905 113.19 118.837 102.806 118.477 89.182ZM44.0156 103.646C44.6954 103.646 45.3486 104.019 45.6419 104.659C45.8418 105.072 45.8551 105.539 45.6819 105.965C45.5086 106.392 45.1753 106.738 44.7488 106.925C43.8557 107.312 42.7893 106.938 42.376 106.072C41.9628 105.205 42.3627 104.192 43.2691 103.806C43.5224 103.699 43.7757 103.646 44.0156 103.646ZM53.4132 118.976C53 118.109 53.3999 117.096 54.3063 116.71C54.5463 116.603 54.7995 116.55 55.0395 116.55C55.2528 116.55 55.466 116.59 55.666 116.656C56.1192 116.816 56.4658 117.136 56.6657 117.55C57.079 118.416 56.6791 119.429 55.7726 119.816C54.8795 120.216 53.8131 119.842 53.4132 118.976Z" fill="#10CB5B"/>
<path d="M85.0585 44.8976C84.4453 43.6045 82.8591 43.0313 81.4994 43.6179C80.8462 43.8978 80.353 44.4177 80.0997 45.0576C80.0731 45.1109 80.0598 45.1775 80.0331 45.2442H67.4363L58.4919 58.1083C57.8654 57.9083 57.1722 57.9216 56.5191 58.2016C55.8659 58.4815 55.3727 59.0014 55.1194 59.6413C54.8661 60.2812 54.8928 60.9877 55.1861 61.6142C55.6393 62.5607 56.6124 63.1206 57.6388 63.1206C58.012 63.1206 58.3852 63.0406 58.7452 62.894C60.0915 62.3074 60.6913 60.7744 60.0781 59.4813C59.9848 59.2814 59.8649 59.1081 59.7316 58.9481L68.2494 46.6972H80.0331C80.0731 46.8172 80.1131 46.9239 80.1664 47.0305C80.6196 47.977 81.5927 48.5369 82.6191 48.5369C82.9923 48.5369 83.3656 48.4569 83.7255 48.3103C84.3787 48.0303 84.8719 47.5104 85.1251 46.8705C85.3784 46.2307 85.3518 45.5241 85.0585 44.8976ZM59.3183 61.1477C59.1451 61.5742 58.8118 61.9208 58.3852 62.1075C57.4921 62.4941 56.4257 62.1208 56.0125 61.2543C55.5993 60.3878 55.9992 59.3747 56.9056 58.9881C57.1456 58.8815 57.3988 58.8415 57.6388 58.8415C58.3186 58.8415 58.9718 59.2147 59.265 59.8546C59.465 60.2545 59.4783 60.7211 59.3183 61.1477ZM84.2854 46.5639C84.1121 46.9905 83.7788 47.3371 83.3523 47.5237C82.4592 47.9103 81.3928 47.5371 80.9795 46.6706C80.5663 45.8041 80.9662 44.791 81.8726 44.4044C82.1126 44.2977 82.3658 44.2577 82.6058 44.2577C83.2856 44.2577 83.9388 44.631 84.2454 45.2709C84.432 45.6708 84.4586 46.1374 84.2854 46.5639Z" fill="#10CB5B"/>
<path d="M0 177.391L4.05231 149.077H4.51886L16.0359 172.312L27.4331 149.077H27.8863L31.9652 177.391H29.1926L26.3933 157.142L16.3825 177.391H15.6627L5.53193 156.982L2.74597 177.391H0Z" fill="#10CB5B"/>
<path d="M49.0944 149.077L62.3043 177.391H59.2518L54.7996 168.073H42.6027L38.1904 177.391H35.0312L48.4145 149.077H49.0944ZM48.7344 155.089L43.8823 165.34H53.5599L48.7344 155.089Z" fill="#10CB5B"/>
<path d="M61.9443 151.849V149.077H77.4604V151.849H71.142V177.391H68.2494V151.849H61.9443Z" fill="#10CB5B"/>
<path d="M83.7256 149.077H99.9482V151.849H86.5515V160.728H99.8282V163.5H86.5515V174.632H99.8282V177.404H83.7256V149.077Z" fill="#10CB5B"/>
<path d="M132.286 154.329L130.047 156.049C128.821 154.449 127.341 153.222 125.608 152.396C123.875 151.569 121.982 151.156 119.916 151.156C117.663 151.156 115.571 151.703 113.638 152.783C111.718 153.862 110.225 155.329 109.159 157.155C108.106 158.981 107.573 161.034 107.573 163.327C107.573 166.78 108.759 169.659 111.118 171.965C113.491 174.272 116.477 175.431 120.076 175.431C124.035 175.431 127.354 173.872 130.034 170.779L132.273 172.472C130.86 174.272 129.101 175.658 126.994 176.644C124.888 177.631 122.529 178.111 119.916 178.111C114.957 178.111 111.052 176.458 108.199 173.165C105.8 170.379 104.6 167.02 104.6 163.074C104.6 158.928 106.053 155.435 108.959 152.609C111.865 149.783 115.504 148.37 119.89 148.37C122.529 148.37 124.915 148.89 127.048 149.943C129.181 150.983 130.927 152.449 132.286 154.329Z" fill="#10CB5B"/>
<path d="M137.925 149.077H140.751V160.954H155.174V149.077H158V177.391H155.174V163.727H140.751V177.391H137.925V149.077Z" fill="#10CB5B"/>
<path d="M42.8425 194.254C42.8825 195.014 43.0692 195.641 43.3891 196.12C43.9889 197.014 45.0687 197.467 46.5883 197.467C47.2681 197.467 47.8946 197.374 48.4678 197.174C49.5608 196.8 50.1074 196.121 50.1074 195.134C50.1074 194.401 49.8808 193.881 49.4142 193.561C48.9477 193.254 48.2145 192.988 47.2281 192.761L45.4019 192.348C44.2022 192.081 43.3624 191.788 42.8692 191.455C42.0161 190.895 41.5895 190.055 41.5895 188.935C41.5895 187.722 42.0028 186.722 42.8425 185.949C43.6823 185.176 44.8687 184.776 46.4016 184.776C47.8146 184.776 49.0143 185.123 50.0007 185.803C50.9872 186.482 51.4804 187.576 51.4804 189.082H49.7608C49.6675 188.362 49.4675 187.802 49.1743 187.416C48.6144 186.709 47.668 186.362 46.335 186.362C45.2553 186.362 44.4821 186.589 44.0156 187.042C43.549 187.496 43.3091 188.015 43.3091 188.629C43.3091 189.295 43.589 189.775 44.1356 190.082C44.4955 190.282 45.3086 190.522 46.5883 190.815L48.4811 191.241C49.3876 191.455 50.094 191.735 50.5873 192.095C51.4404 192.721 51.8669 193.641 51.8669 194.841C51.8669 196.334 51.3204 197.4 50.2407 198.04C49.1476 198.68 47.8946 199 46.455 199C44.7754 199 43.4691 198.573 42.5093 197.72C41.5629 196.867 41.0963 195.721 41.1097 194.254H42.8425Z" fill="#10CB5B"/>
<path d="M64.0103 185.123V186.736H59.4648V198.613H57.6119V186.736H53.0664V185.123H64.0103Z" fill="#10CB5B"/>
<path d="M67.6629 185.123V193.468C67.6629 194.441 67.8495 195.267 68.2095 195.907C68.756 196.88 69.6758 197.374 70.9688 197.374C72.515 197.374 73.5681 196.84 74.128 195.787C74.4212 195.214 74.5812 194.441 74.5812 193.468V185.123H76.4341V192.695C76.4341 194.348 76.2074 195.627 75.7676 196.521C74.9411 198.147 73.3948 198.96 71.1154 198.96C68.836 198.96 67.2897 198.147 66.4766 196.521C66.0367 195.627 65.8101 194.348 65.8101 192.695V185.123H67.6629Z" fill="#10CB5B"/>
<path d="M79.3398 185.123H84.8051C86.658 185.123 88.0976 185.776 89.124 187.096C90.0305 188.282 90.497 189.802 90.497 191.655C90.497 193.081 90.2304 194.388 89.6839 195.534C88.7375 197.574 87.0979 198.6 84.7918 198.6H79.3532V185.123H79.3398ZM84.4452 197.054C85.0584 197.054 85.5783 196.987 85.9648 196.867C86.6713 196.627 87.2578 196.174 87.7111 195.494C88.071 194.947 88.3376 194.254 88.4842 193.401C88.5775 192.895 88.6175 192.428 88.6175 191.988C88.6175 190.322 88.2843 189.015 87.6178 188.096C86.9513 187.176 85.8849 186.709 84.4052 186.709H81.1794V197.067H84.4452V197.054Z" fill="#10CB5B"/>
<path d="M93.2563 185.123H95.0959V198.613H93.2563V185.123Z" fill="#10CB5B"/>
<path d="M109.186 187.042C110.079 188.242 110.532 189.762 110.532 191.628C110.532 193.641 110.025 195.321 108.999 196.654C107.799 198.227 106.093 199 103.867 199C101.788 199 100.161 198.32 98.9749 196.947C97.9219 195.627 97.3887 193.948 97.3887 191.935C97.3887 190.108 97.8419 188.549 98.7483 187.256C99.908 185.589 101.628 184.763 103.907 184.763C106.266 184.75 108.039 185.523 109.186 187.042ZM107.573 195.641C108.293 194.481 108.652 193.161 108.652 191.655C108.652 190.068 108.239 188.789 107.413 187.829C106.586 186.856 105.453 186.376 104.014 186.376C102.614 186.376 101.481 186.856 100.601 187.816C99.7214 188.775 99.2815 190.188 99.2815 192.055C99.2815 193.548 99.6548 194.814 100.415 195.827C101.174 196.854 102.401 197.36 104.094 197.36C105.68 197.374 106.853 196.8 107.573 195.641Z" fill="#10CB5B"/>
<path d="M113.891 194.254C113.931 195.014 114.118 195.641 114.438 196.12C115.038 197.014 116.117 197.467 117.637 197.467C118.317 197.467 118.943 197.374 119.517 197.174C120.61 196.8 121.156 196.121 121.156 195.134C121.156 194.401 120.93 193.881 120.463 193.561C119.997 193.254 119.263 192.988 118.277 192.761L116.451 192.348C115.251 192.081 114.411 191.788 113.918 191.455C113.065 190.895 112.638 190.055 112.638 188.935C112.638 187.722 113.052 186.722 113.891 185.949C114.731 185.176 115.918 184.776 117.45 184.776C118.863 184.776 120.063 185.123 121.05 185.803C122.036 186.482 122.529 187.576 122.529 189.082H120.81C120.716 188.362 120.516 187.802 120.223 187.416C119.663 186.709 118.717 186.362 117.384 186.362C116.304 186.362 115.531 186.589 115.064 187.042C114.598 187.496 114.358 188.015 114.358 188.629C114.358 189.295 114.638 189.775 115.184 190.082C115.544 190.282 116.357 190.522 117.637 190.815L119.53 191.241C120.436 191.455 121.143 191.735 121.636 192.095C122.489 192.721 122.916 193.641 122.916 194.841C122.916 196.334 122.369 197.4 121.29 198.04C120.196 198.68 118.943 199 117.504 199C115.824 199 114.518 198.573 113.558 197.72C112.612 196.867 112.145 195.721 112.158 194.254H113.891Z" fill="#10CB5B"/>
</svg>
