<svg width="48" height="48" viewBox="0 0 48 48" fill="none" xmlns="http://www.w3.org/2000/svg">
<g filter="url(#filter0_dd)">
<path d="M8 20C8 11.1622 15.1622 4 24 4C32.8378 4 40 11.1622 40 20C40 28.8378 32.8378 36 24 36C15.1622 36 8 28.8378 8 20Z" fill="#27AE60"/>
<path fill-rule="evenodd" clip-rule="evenodd" d="M17.1345 15.0601C17.157 14.8279 17.0722 14.5988 16.9072 14.4429L15.2273 12.3173V12H20.4458L24.4792 21.2859L28.0253 12H33V12.3173L31.563 13.7635C31.4392 13.8627 31.3778 14.0257 31.4032 14.1871V24.8137C31.3778 24.9743 31.4392 25.1373 31.563 25.2365L32.9662 26.6827V27H25.9073V26.6827L27.3615 25.2011C27.504 25.0515 27.504 25.0074 27.504 24.7783V16.1891L23.4622 26.9654H22.9163L18.21 16.1891V23.4116C18.171 23.7147 18.267 24.0209 18.4702 24.2398L20.361 26.6473V26.9654H15V26.6473L16.8907 24.2398C17.0933 24.0202 17.1832 23.7123 17.1345 23.4116V15.0601Z" fill="#0E0E0E"/>
</g>
<defs>
<filter id="filter0_dd" x="0" y="0" width="48" height="48" filterUnits="userSpaceOnUse" color-interpolation-filters="sRGB">
<feFlood flood-opacity="0" result="BackgroundImageFix"/>
<feColorMatrix in="SourceAlpha" type="matrix" values="0 0 0 0 0 0 0 0 0 0 0 0 0 0 0 0 0 0 127 0"/>
<feOffset dy="4"/>
<feGaussianBlur stdDeviation="4"/>
<feColorMatrix type="matrix" values="0 0 0 0 0 0 0 0 0 0 0 0 0 0 0 0 0 0 0.32 0"/>
<feBlend mode="normal" in2="BackgroundImageFix" result="effect1_dropShadow"/>
<feColorMatrix in="SourceAlpha" type="matrix" values="0 0 0 0 0 0 0 0 0 0 0 0 0 0 0 0 0 0 127 0"/>
<feOffset/>
<feGaussianBlur stdDeviation="1"/>
<feColorMatrix type="matrix" values="0 0 0 0 0 0 0 0 0 0 0 0 0 0 0 0 0 0 0.04 0"/>
<feBlend mode="normal" in2="effect1_dropShadow" result="effect2_dropShadow"/>
<feBlend mode="normal" in="SourceGraphic" in2="effect2_dropShadow" result="shape"/>
</filter>
</defs>
</svg>
